
<svg width="512.000000pt" height="512.000000pt" viewBox="0 0 512.000000 512.000000" xmlns="http://www.w3.org/2000/svg">
  <g transform="translate(0.000000,512.000000) scale(0.100000,-0.100000)" fill="none" stroke="none">
    <path d="M0 2560 c0 -2560 0 -2560 2560 -2560 2560 0 2560 0 2560 2560 0 2560
0 2560 -2560 2560 -2560 0 -2560 0 -2560 -2560z m4965 2016 c114 -54 144 -119
145 -309 0 -186 -25 -243 -131 -302 -54 -30 -54 -30 -484 -35 -483 -6 -513
-11 -600 -112 -58 -68 -58 -68 143 -68 244 0 333 -25 432 -124 123 -120 130
-154 130 -609 0 -374 0 -374 46 -381 107 -14 202 -80 255 -178 34 -63 34 -63
37 -505 2 -358 5 -443 16 -443 63 0 156 -136 156 -230 0 -168 -112 -250 -341
-250 -127 0 -127 0 -144 -42 -28 -71 -84 -157 -146 -223 -80 -85 -82 -83 90
-87 192 -4 257 -53 176 -133 -38 -39 -4332 -39 -4370 0 -81 80 -16 129 176
133 173 4 170 1 86 92 -195 212 -254 497 -156 763 17 45 32 89 35 97 4 11 -52
57 -185 153 -368 267 -401 384 -213 761 119 241 118 236 54 258 -152 54 -162
89 -162 592 0 475 -1 466 82 541 83 75 -20 69 1288 75 855 4 1182 8 1201 17
50 22 89 66 220 249 163 228 226 285 346 313 101 24 1765 12 1818 -13z" />
    <path d="M360 3650 c-18 -18 -20 -33 -20 -193 0 -198 7 -217 82 -217 80 0 98
30 98 160 0 90 0 90 90 90 131 0 160 18 160 99 0 74 -20 81 -218 81 -159 0
-174 -2 -192 -20z" />
    <path d="M1835 875 c-14 -25 -53 -74 -86 -109 -83 -89 -88 -86 131 -86 105 0
190 3 190 8 0 4 -24 33 -54 64 -29 32 -70 82 -90 113 -45 67 -56 68 -91 10z" />
    <path d="M3194 865 c-20 -31 -61 -81 -90 -113 -30 -31 -54 -60 -54 -64 0 -5
86 -8 190 -8 219 0 214 -3 131 86 -33 35 -72 84 -86 109 -35 58 -46 57 -91
-10z" />
  </g>
  <g transform="translate(0.000000,512.000000) scale(0.100000,-0.100000)" fill="#000000" stroke="none">
    <path d="M3137 4599 c-120 -28 -183 -85 -346 -313 -131 -183 -170 -227 -220
-249 -19 -9 -346 -13 -1201 -17 -1308 -6 -1205 0 -1288 -75 -84 -75 -82 -65
-82 -551 0 -513 9 -545 159 -600 25 -10 48 -19 50 -21 3 -2 -42 -99 -100 -215
-104 -211 -104 -211 -104 -327 0 -201 39 -257 315 -457 170 -123 188 -139 178
-157 -138 -258 -82 -628 130 -857 63 -69 63 -69 -87 -72 -175 -4 -201 -15
-201 -90 0 -97 -230 -88 2220 -88 2450 0 2220 -9 2220 88 0 75 -26 86 -201 90
-150 3 -150 3 -91 67 63 66 119 152 147 223 17 42 17 42 144 42 235 0 341 81
341 260 0 104 -89 240 -156 240 -11 0 -14 85 -16 443 -3 442 -3 442 -37 505
-53 98 -148 164 -255 178 -46 7 -46 7 -46 381 0 439 -5 467 -101 580 -99 117
-180 145 -437 152 -203 6 -203 6 -167 48 87 102 117 107 600 113 430 5 430 5
484 35 108 60 131 115 131 312 -1 201 -29 265 -145 319 -53 25 -1737 37 -1838
13z m1778 -194 c24 -23 25 -30 25 -139 0 -178 33 -166 -463 -166 -660 0 -551
84 -1240 -950 -552 -829 -539 -810 -576 -810 -29 0 -352 80 -364 90 -4 3 53
92 127 197 259 369 257 364 197 424 -72 71 -96 51 -321 -271 -238 -341 -200
-304 -288 -281 -41 11 -76 22 -79 25 -3 2 61 98 141 213 128 182 146 213 146
247 0 58 -30 86 -91 86 -56 0 -41 17 -253 -286 -147 -212 -147 -212 -227 -191
-95 25 -98 7 34 194 128 182 144 237 77 273 -77 41 -103 21 -250 -190 -67 -96
-128 -181 -135 -188 -18 -19 -1138 268 -1172 300 -37 35 -36 786 2 823 24 25
24 25 1142 25 697 0 1144 4 1188 10 156 23 219 75 405 334 132 185 162 217
228 241 79 29 1718 20 1747 -10z m-669 -840 c60 -18 127 -72 157 -129 21 -40
22 -51 25 -413 3 -373 3 -373 -203 -373 -113 0 -205 2 -205 5 0 3 56 90 125
193 139 208 150 238 100 287 -25 26 -80 34 -114 16 -9 -5 -91 -120 -181 -255
-163 -246 -163 -246 -262 -246 -77 0 -97 3 -92 13 4 6 61 92 126 189 152 229
161 308 33 308 -57 0 -54 4 -234 -267 -161 -243 -161 -243 -271 -243 -61 0
-110 2 -110 5 0 3 138 212 307 465 306 460 306 460 528 460 166 0 234 -4 271
-15z m-2725 -1130 c607 -157 1118 -285 1135 -285 108 0 181 54 283 209 74 111
74 111 875 111 844 0 849 0 899 -47 58 -56 57 -47 57 -483 0 -400 0 -400 -60
-400 -36 0 -60 4 -60 11 0 6 -16 42 -35 81 -266 529 -1027 566 -1343 65 -30
-47 -30 -47 -57 -2 -275 469 -1035 469 -1310 0 -27 -45 -27 -45 -57 2 -246
390 -799 474 -1152 176 -38 -32 -74 -62 -81 -67 -8 -6 -70 34 -191 122 -297
216 -303 243 -132 586 56 113 108 206 113 206 6 0 508 -128 1116 -285z m-141
-598 c532 -187 532 -928 0 -1113 -371 -129 -774 160 -774 556 0 396 403 686
774 557z m1305 18 c458 -116 615 -658 286 -985 -474 -471 -1239 87 -931 679
122 234 403 367 645 306z m1380 -5 c365 -93 552 -492 386 -825 -244 -490 -942
-420 -1097 110 -119 410 291 823 711 715z m828 -502 c109 -58 44 -148 -107
-148 -86 0 -86 0 -86 80 0 80 0 80 86 80 47 0 95 -5 107 -12z m-2977 -493 c20
-31 60 -80 88 -110 52 -55 52 -55 -127 -55 -179 0 -179 0 -119 65 34 35 73 85
87 110 33 55 27 56 71 -10z m1359 10 c14 -25 53 -75 87 -110 60 -65 60 -65
-119 -65 -179 0 -179 0 -127 55 28 30 68 79 88 110 44 66 38 65 71 10z" />
    <path d="M1100 1614 c-298 -80 -343 -509 -67 -643 240 -116 506 45 507 306 1
238 -210 399 -440 337z m170 -193 c143 -75 98 -286 -63 -298 -62 -5 -111 18
-144 67 -94 138 60 310 207 231z" />
    <path d="M2469 1617 c-389 -110 -313 -682 91 -682 306 0 461 356 255 584 -78
86 -233 130 -346 98z m172 -200 c52 -35 79 -82 79 -137 0 -122 -143 -203 -241
-137 -137 92 -81 297 81 297 32 0 58 -7 81 -23z" />
    <path d="M3830 1614 c-341 -91 -331 -586 14 -671 325 -80 555 293 349 564 -73
96 -230 142 -363 107z m193 -207 c127 -97 50 -296 -110 -284 -161 12 -206 221
-63 299 50 27 127 20 173 -15z" />
  </g>
  <g transform="translate(0.000000,512.000000) scale(0.100000,-0.100000)" fill="#fede00" stroke="none">
    <path d="M3158 4425 c-66 -24 -96 -56 -228 -241 -186 -259 -249 -311 -405
-334 -44 -6 -491 -10 -1188 -10 -1118 0 -1118 0 -1142 -25 -38 -37 -39 -808
-3 -843 17 -15 166 -57 593 -167 313 -81 574 -149 580 -151 5 -2 66 78 135
177 168 243 182 255 250 219 63 -34 52 -69 -88 -268 -63 -90 -111 -167 -106
-171 16 -15 176 -53 184 -44 4 4 79 109 165 233 86 124 164 233 173 243 23 26
83 23 110 -6 42 -45 32 -67 -128 -296 -83 -118 -150 -217 -150 -221 0 -25 184
-53 201 -31 10 12 100 139 199 281 181 259 215 300 252 300 28 0 78 -54 78
-83 0 -28 3 -23 -212 -330 -88 -125 -158 -230 -155 -233 5 -5 301 -83 303 -80
1 0 226 339 501 751 340 510 515 764 547 793 49 45 156 102 192 102 12 0 50
15 85 34 117 62 148 66 527 66 398 0 356 -19 360 160 6 215 112 190 -805 189
-638 0 -795 -3 -825 -14z m-2421 -787 c23 -21 30 -59 17 -93 -12 -31 -59 -45
-154 -45 -90 0 -90 0 -90 -90 0 -125 -19 -160 -88 -160 -63 0 -72 26 -72 207
0 216 -13 203 202 203 152 0 163 -1 185 -22z" />
  </g>
  <g transform="translate(0.000000,512.000000) scale(0.100000,-0.100000)" fill="#fe9700" stroke="none">
    <path d="M284 2528 c-175 -350 -167 -396 110 -597 158 -114 149 -111 213 -72
27 16 82 41 123 55 42 14 105 39 140 55 302 141 687 63 892 -180 50 -59 41
-59 112 0 69 58 146 101 236 131 36 12 92 34 125 50 296 138 646 73 873 -164
73 -75 70 -75 103 -40 45 49 161 117 252 149 51 18 117 44 148 59 339 159 829
3 970 -308 36 -78 40 -39 37 347 -4 525 110 461 -834 465 -780 2 -780 2 -860
-115 -174 -259 -42 -267 -1392 82 -614 158 -1122 290 -1129 292 -7 3 -53 -77
-119 -209z" />
  </g>
  <g transform="translate(0.000000,512.000000) scale(0.100000,-0.100000)" fill="#5f7c8a" stroke="none">
    <path d="M1041 1860 c-591 -155 -588 -1009 4 -1160 182 -46 259 -27 381 95
268 269 267 703 -1 972 -119 119 -204 140 -384 93z m234 -255 c282 -73 347
-439 106 -603 -129 -88 -312 -71 -422 39 -240 240 -10 648 316 564z" />
    <path d="M2417 1864 c-420 -101 -597 -625 -325 -958 168 -205 482 -293 633
-176 329 254 358 754 60 1046 -110 107 -200 129 -368 88z m289 -284 c168 -82
237 -278 156 -442 -127 -258 -477 -258 -604 0 -139 282 165 581 448 442z" />
    <path d="M3771 1860 c-671 -176 -537 -1180 157 -1180 349 0 554 588 335 959
-125 210 -274 278 -492 221z m234 -255 c355 -93 334 -584 -28 -656 -106 -22
-242 31 -313 120 -199 249 34 616 341 536z" />
  </g>
  <g transform="translate(0.000000,512.000000) scale(0.100000,-0.100000)" fill="#00bbd3" stroke="none">
    <path d="M3432 3122 c-172 -257 -312 -471 -312 -475 0 -4 56 -7 125 -7 125 0
125 0 286 243 193 290 212 307 277 247 45 -42 33 -73 -108 -285 -71 -107 -130
-197 -130 -200 0 -3 51 -5 113 -5 114 0 114 0 277 246 90 135 172 250 181 255
34 18 70 10 99 -21 42 -45 43 -43 38 133 -7 306 -37 337 -322 337 -213 0 -213
0 -524 -468z" />
    <path d="M4131 2852 c-72 -109 -131 -201 -131 -205 0 -4 63 -7 140 -7 140 0
140 0 140 205 0 113 -4 205 -9 205 -4 0 -67 -89 -140 -198z" />
  </g>
  <g transform="translate(0.000000,512.000000) scale(0.100000,-0.100000)" fill="#37464e" stroke="none">
    <path d="M1322 1840 c382 -253 384 -860 4 -1116 -64 -43 -37 -46 69 -9 527
186 527 944 0 1130 -102 36 -132 34 -73 -5z" />
    <path d="M2671 1863 c2 -6 32 -33 66 -62 338 -279 320 -805 -37 -1074 -47 -36
-35 -41 41 -17 477 148 565 798 145 1071 -77 50 -224 106 -215 82z" />
    <path d="M4039 1852 c401 -278 411 -870 20 -1129 -54 -36 -34 -40 54 -12 488
157 556 845 107 1092 -94 51 -242 92 -181 49z" />
    <path d="M4860 1361 c0 -5 10 -11 23 -15 36 -9 43 -6 23 9 -22 17 -46 20 -46
6z" />
    <path d="M4878 1213 c-21 -5 -24 -23 -5 -23 7 0 22 7 33 15 20 15 9 18 -28 8z" />
  </g>
  <g transform="translate(0.000000,512.000000) scale(0.100000,-0.100000)" fill="#fcc107" stroke="none">
    <path d="M4767 4409 c20 -40 16 -277 -6 -302 -26 -32 120 -24 158 9 44 37 48
257 6 299 -42 43 -180 37 -158 -6z" />
    <path d="M3875 4021 c-6 -5 -34 -14 -63 -20 -172 -36 -171 -35 -748 -901 -563
-844 -523 -769 -411 -771 54 -2 27 -39 587 801 504 755 553 823 640 882 14 9
20 17 15 17 -6 1 -15 -3 -20 -8z" />
  </g>
  <g transform="translate(0.000000,512.000000) scale(0.100000,-0.100000)" fill="#f5f5f4" stroke="none">
    <path d="M4015 3901 c-36 -17 -94 -57 -70 -49 26 10 125 60 125 64 0 8 -15 4
-55 -15z" />
    <path d="M483 3663 c43 -2 110 -2 150 0 40 1 5 3 -78 3 -82 0 -115 -2 -72 -3z" />
    <path d="M344 3460 c0 -80 2 -112 3 -72 2 39 2 105 0 145 -1 39 -3 7 -3 -73z" />
    <path d="M1159 1450 c-108 -19 -166 -135 -120 -243 56 -131 252 -133 311 -2
60 133 -46 270 -191 245z" />
    <path d="M2545 1455 c-5 -2 -22 -6 -37 -9 -89 -20 -151 -154 -108 -237 88
-169 335 -113 332 76 -1 96 -108 193 -187 170z" />
    <path d="M3885 1447 c-220 -52 -142 -382 79 -335 55 12 93 42 116 95 60 137
-51 274 -195 240z" />
    <path d="M4992 1068 c-18 -11 -31 -23 -28 -25 5 -5 76 35 76 43 0 8 -15 2 -48
-18z" />
  </g>
  <g transform="translate(0.000000,512.000000) scale(0.100000,-0.100000)" fill="#f37c00" stroke="none">
    <path d="M4552 2463 c52 -60 53 -64 56 -451 2 -254 0 -362 -7 -357 -15 9 -14
5 14 -53 14 -29 25 -56 25 -62 0 -6 30 -10 70 -10 70 0 70 0 70 410 0 447 1
437 -57 493 -48 45 -209 73 -171 30z" />
    <path d="M2945 2393 c-68 -103 -90 -140 -78 -128 17 16 135 196 131 200 -2 2
-26 -31 -53 -72z" />
    <path d="M715 1922 c-44 -16 -100 -41 -124 -56 -37 -24 -48 -27 -64 -17 -45
28 -22 1 28 -34 55 -38 55 -38 103 7 27 25 72 62 100 83 77 55 72 57 -43 17z" />
    <path d="M2089 1926 c-104 -36 -259 -135 -281 -178 -4 -8 62 -118 71 -118 3 0
17 21 30 46 33 61 146 181 216 229 79 55 71 59 -36 21z" />
    <path d="M3444 1921 c-82 -28 -199 -98 -243 -145 -13 -14 -28 -23 -32 -20 -15
9 -10 -3 26 -56 19 -29 35 -56 35 -61 0 -23 20 -4 55 52 46 75 141 173 215
222 66 44 52 46 -56 8z" />
    <path d="M3095 1820 c16 -16 31 -28 33 -25 7 7 -39 55 -52 55 -5 0 3 -13 19
-30z" />
  </g>
  <g transform="translate(0.000000,512.000000) scale(0.100000,-0.100000)" fill="#00838f" stroke="none">
    <path d="M4180 3553 c68 -77 84 -131 88 -302 3 -95 1 -151 -5 -148 -5 3 -8 -7
-5 -24 4 -25 -14 -58 -110 -202 -131 -197 -156 -236 -141 -222 6 6 67 96 137
200 127 190 127 190 124 -13 -3 -202 -3 -202 85 -202 88 0 88 0 85 383 -3 372
-4 383 -25 423 -43 81 -147 144 -236 144 -29 0 -29 0 3 -37z" />
    <path d="M4137 3149 c-17 -10 -337 -481 -337 -496 0 -5 74 102 164 237 96 145
173 250 187 257 13 6 20 12 14 12 -5 0 -18 -4 -28 -10z" />
    <path d="M3537 2905 c-87 -129 -157 -238 -157 -242 0 -5 64 89 143 207 181
271 180 270 175 270 -3 0 -75 -106 -161 -235z" />
    <path d="M3715 2868 c-114 -172 -143 -217 -128 -203 16 16 235 346 231 350 -2
2 -48 -64 -103 -147z" />
  </g>
  <g transform="translate(0.000000,512.000000) scale(0.100000,-0.100000)" fill="#282f31" stroke="none">
    <path d="M3642 4603 c223 -2 592 -2 820 0 227 1 44 2 -407 2 -451 0 -637 -1
-413 -2z" />
    <path d="M4602 2988 c-1 -192 1 -348 6 -348 6 0 6 273 -1 575 -1 66 -4 -36 -5
-227z" />
    <path d="M1043 1589 c-23 -11 -48 -28 -55 -37 -8 -10 0 -7 19 6 18 13 49 29
70 37 21 7 31 14 23 14 -8 1 -34 -8 -57 -20z" />
    <path d="M1313 1595 c21 -8 52 -24 70 -37 20 -14 27 -16 19 -6 -16 20 -92 58
-113 57 -8 0 3 -7 24 -14z" />
    <path d="M4043 1595 c21 -8 52 -24 70 -37 20 -14 27 -16 19 -6 -16 20 -92 58
-113 57 -8 0 3 -7 24 -14z" />
    <path d="M3153 1280 c0 -41 2 -58 4 -37 2 20 2 54 0 75 -2 20 -4 3 -4 -38z" />
    <path d="M5020 1088 c-42 -39 -42 -40 -10 -20 19 11 41 30 49 42 19 29 12 25
-39 -22z" />
    <path d="M988 1008 c16 -20 92 -58 113 -57 8 0 -3 7 -24 14 -21 8 -52 24 -70
37 -20 14 -27 16 -19 6z" />
    <path d="M1378 999 c-14 -11 -44 -26 -65 -34 -21 -7 -32 -14 -24 -14 20 -1 97
37 111 55 17 19 10 17 -22 -7z" />
    <path d="M4108 999 c-14 -11 -44 -26 -65 -34 -21 -7 -32 -14 -24 -14 20 -1 97
37 111 55 17 19 10 17 -22 -7z" />
    <path d="M3100 745 c-19 -19 -29 -35 -24 -35 11 0 45 34 58 58 12 21 1 14 -34
-23z" />
    <path d="M1990 764 c0 -13 48 -59 55 -52 3 2 -9 17 -25 33 -17 16 -30 24 -30
19z" />
    <path d="M1482 513 c593 -2 1563 -2 2155 0 593 1 108 2 -1077 2 -1185 0 -1670
-1 -1078 -2z" />
  </g>
  <g transform="translate(0.000000,512.000000) scale(0.100000,-0.100000)" fill="#111310" stroke="none">
    <path d="M1663 3062 c-6 -4 13 -7 42 -7 29 0 48 3 42 7 -7 4 -25 8 -42 8 -16
0 -35 -4 -42 -8z" />
    <path d="M285 2530 c-58 -115 -105 -213 -104 -217 0 -5 48 87 106 202 58 116
111 213 117 217 8 6 7 8 -1 8 -7 0 -60 -94 -118 -210z" />
    <path d="M4945 1920 c0 -223 1 -314 2 -203 2 112 2 294 0 405 -1 112 -2 21 -2
-202z" />
  </g>
  <g transform="translate(0.000000,512.000000) scale(0.100000,-0.100000)" fill="#724600" stroke="none">
    <path d="M4318 4093 c106 -2 277 -2 380 0 103 1 16 2 -193 2 -209 0 -293 -1
-187 -2z" />
    <path d="M2997 2473 c-5 -7 583 -7 1353 0 162 1 -75 3 -527 5 -452 1 -824 -1
-826 -5z" />
    <path d="M4647 1538 c2 -5 33 -8 69 -8 35 0 64 3 64 8 0 4 -31 7 -69 7 -38 0
-67 -3 -64 -7z" />
  </g>
  <g transform="translate(0.000000,512.000000) scale(0.100000,-0.100000)" fill="#9e9e9e" stroke="none">
    <path d="M4690 1280 c0 -90 0 -90 88 -90 101 0 151 19 166 63 27 75 -33 117
-166 117 -88 0 -88 0 -88 -90z" />
    <path d="M3380 735 c25 -27 46 -52 48 -54 1 -2 4 -2 7 0 2 3 -19 27 -48 55
-52 49 -52 49 -7 -1z" />
  </g>
  <g transform="translate(0.000000,512.000000) scale(0.100000,-0.100000)" fill="#45555d" stroke="none">
    <path d="M122 2585 c-50 -102 -90 -185 -87 -185 7 0 187 361 183 366 -2 2 -45
-80 -96 -181z" />
    <path d="M4733 1363 c26 -2 68 -2 95 0 26 2 4 3 -48 3 -52 0 -74 -1 -47 -3z" />
    <path d="M4733 1193 c26 -2 68 -2 95 0 26 2 4 3 -48 3 -52 0 -74 -1 -47 -3z" />
  </g>
  <g transform="translate(0.000000,512.000000) scale(0.100000,-0.100000)" fill="#ecebea" stroke="none">
    <path d="M813 4013 c313 -2 821 -2 1130 0 309 1 54 2 -568 2 -621 0 -874 -1
-562 -2z" />
  </g>
  <g transform="translate(0.000000,512.000000) scale(0.100000,-0.100000)" fill="#59676e" stroke="none">
    <path d="M4647 1023 c-3 -5 32 -7 76 -5 147 5 164 8 45 10 -64 1 -119 -1 -121
-5z" />
  </g>
  <g transform="translate(0.000000,512.000000) scale(0.100000,-0.100000)" fill="#caa702" stroke="none">
    <path d="M3633 4433 c230 -2 604 -2 830 0 227 1 39 2 -418 2 -456 0 -642 -1
-412 -2z" />
    <path d="M3237 3140 c-279 -418 -507 -763 -507 -767 0 -5 222 325 493 732 571
857 531 795 525 795 -3 0 -233 -342 -511 -760z" />
  </g>
  <g transform="translate(0.000000,512.000000) scale(0.100000,-0.100000)" fill="#3c2b00" stroke="none" />
  <g transform="translate(0.000000,512.000000) scale(0.100000,-0.100000)" fill="#bfbfbc" stroke="none">
    <path d="M1697 703 c-20 -19 10 -23 186 -21 192 3 192 3 4 5 -119 2 -186 7
-182 13 7 11 2 13 -8 3z" />
    <path d="M3414 702 c5 -8 -44 -12 -181 -15 -188 -2 -188 -2 5 -5 178 -2 215 3
180 24 -7 4 -8 3 -4 -4z" />
    <path d="M4427 703 c-20 -19 5 -23 136 -21 142 2 142 2 4 5 -86 2 -136 7 -132
13 7 11 2 13 -8 3z" />
    <path d="M555 690 c-140 -6 -140 -6 3 -8 89 -1 142 2 142 8 0 6 -1 9 -2 8 -2
-1 -66 -5 -143 -8z" />
  </g>
  <g transform="translate(0.000000,512.000000) scale(0.100000,-0.100000)" fill="#005b64" stroke="none">
    <path d="M3843 3583 c59 -2 154 -2 210 0 56 1 8 3 -108 3 -115 0 -161 -2 -102
-3z" />
    <path d="M4432 3007 c-2 -358 -2 -358 -217 -355 -118 2 -215 0 -215 -4 0 -14
430 -9 435 5 3 6 4 170 2 362 -2 350 -2 350 -5 -8z" />
    <path d="M3245 2650 c-130 -6 -130 -6 -3 -8 76 -1 129 2 133 8 3 6 5 9 3 8 -2
-1 -61 -5 -133 -8z" />
    <path d="M3633 2643 c32 -2 81 -2 110 0 29 2 3 3 -58 3 -60 0 -84 -1 -52 -3z" />
  </g>
  <g transform="translate(0.000000,512.000000) scale(0.100000,-0.100000)" fill="#8d7101" stroke="none" />
  <g transform="translate(0.000000,512.000000) scale(0.100000,-0.100000)" fill="#b86a00" stroke="none">
    <path d="M4775 1935 c0 -220 1 -309 2 -197 2 112 2 292 0 400 -1 108 -2 17 -2
-203z" />
  </g>
  <g transform="translate(0.000000,512.000000) scale(0.100000,-0.100000)" fill="#858585" stroke="none">
    <path d="M4323 3923 c104 -2 270 -2 370 0 100 1 16 2 -188 2 -203 0 -285 -1
-182 -2z" />
    <path d="M3943 3753 c48 -2 125 -2 170 0 45 1 6 3 -88 3 -93 0 -130 -2 -82 -3z" />
  </g>
</svg>